<svg xmlns="http://www.w3.org/2000/svg" xmlns:xlink="http://www.w3.org/1999/xlink" id="Layer_1" x="0" y="0" version="1.1" viewBox="0 0 792 612" style="enable-background:new 0 0 792 612" xml:space="preserve"><style type="text/css"/><g id="XMLID_7_"><linearGradient id="XMLID_00000113315414922051996050000010144144541386336901_" x1="148.922" x2="649.438" y1="468.418" y2="468.418" gradientUnits="userSpaceOnUse"><stop offset=".015" style="stop-color:#000"/><stop offset=".518" style="stop-color:#0a0a0b"/><stop offset=".82" style="stop-color:#242425"/><stop offset="1" style="stop-color:#383839"/></linearGradient><path id="XMLID_16_" style="fill:url(#XMLID_00000113315414922051996050000010144144541386336901_)" d="M647.1,402.6 c1.4-0.5,2.7,0.9,2.2,2.3c-39.1,96.4-133.7,164.4-244.2,164.4c-50.6,0-97.9-14.3-138-39c-1-0.6-2-1.3-3-1.9 c-0.6-0.4-1.2-0.8-1.8-1.2c-0.6-0.4-1.2-0.8-1.8-1.2c-1.2-0.8-2.4-1.6-3.6-2.4c-3.2-2.2-6.4-4.5-9.6-6.8c-0.6-0.5-1.3-1-1.9-1.4 c-0.7-0.5-1.4-1.1-2.1-1.6c-1.1-0.8-2.2-1.7-3.2-2.6c-2.7-2.2-5.3-4.4-7.9-6.6c-0.9-0.8-1.8-1.6-2.8-2.4 c-6.3-5.6-12.2-11.5-17.9-17.7c-0.9-1-1.8-2-2.8-3c-4.1-4.6-8.1-9.4-11.9-14.3c-0.4-0.5-0.8-1.1-1.3-1.6c-0.3-0.5-0.7-0.9-1-1.4 c-0.3-0.4-0.6-0.8-0.9-1.2c-0.4-0.5-0.7-1-1.1-1.4c-1.5-2-3-4.1-4.4-6.2c-0.5-0.7-1-1.4-1.4-2.1c-0.2-0.3-0.4-0.7-0.7-1 c-0.2-0.3-0.4-0.7-0.7-1c-0.4-0.6-0.8-1.3-1.3-1.9c-0.9-1.4-1.8-2.8-2.7-4.2c-0.7-1.2-1.5-2.3-2.2-3.5c-0.7-1.1-1.4-2.3-2-3.4 c0-0.1-0.1-0.1-0.1-0.2c-0.6-1-1.2-2.1-1.8-3.1c-0.4-0.7-0.8-1.4-1.2-2.1c-0.4-0.7-0.8-1.4-1.1-2.1c-0.4-0.7-0.8-1.5-1.2-2.2 c-0.4-0.7-0.7-1.4-1.1-2.1c-0.4-0.7-0.7-1.4-1.1-2.1c0,0,0,0,0-0.1c-0.2-0.4-0.4-0.7-0.5-1.1c-0.3-0.6-0.6-1.1-0.8-1.7 c-0.6-1.2-1.2-2.5-1.8-3.7c-0.6-1.3-1.2-2.6-1.8-3.9c-0.4-0.9-0.8-1.7-1.1-2.6c-0.5-1.1-0.9-2.1-1.4-3.2c0,0,0,0,0-0.1 c-0.5-1.1-0.9-2.2-1.3-3.3c-0.1-0.3-0.3-0.7-0.4-1c-0.2-0.5-0.4-1-0.6-1.5c-0.1-0.3-0.2-0.5-0.3-0.8c-0.4-1-0.8-2.1-1.2-3.1 c-0.1-0.2-0.1-0.4-0.2-0.6c-0.2-0.4-0.3-0.8-0.5-1.2c0-0.1-0.1-0.1-0.1-0.2c-0.1-0.4-0.3-0.7-0.4-1.1c-0.1-0.3-0.2-0.6-0.3-0.9 c-0.3-1-0.7-2-1-2.9c-0.1-0.3-0.2-0.6-0.3-0.9c-0.2-0.5-0.3-0.9-0.5-1.4c-0.1-0.3-0.2-0.7-0.3-1c-0.4-1.1-0.7-2.3-1.1-3.4 c-0.4-1.1-0.7-2.3-1-3.4c-0.2-0.5-0.3-1-0.5-1.5c-0.7-2.4-1.4-4.8-2-7.2c-0.1-0.5-0.3-1.1-0.4-1.7c-0.3-1.1-0.5-2.2-0.8-3.2 c0-0.1-0.1-0.2-0.1-0.3c0.1,0.2,0.2,0.5,0.3,0.7c0.1,0.2,0.2,0.4,0.3,0.6c0.3,0.7,0.6,1.4,0.9,2.1c0.1,0.2,0.2,0.5,0.3,0.7 c0.3,0.7,0.6,1.4,0.9,2c0.1,0.2,0.2,0.3,0.2,0.5c0.4,0.8,0.7,1.6,1.1,2.3c0.4,0.9,0.9,1.8,1.3,2.7c0.4,0.8,0.8,1.6,1.2,2.4 c0.2,0.4,0.4,0.9,0.7,1.3c0.2,0.5,0.5,0.9,0.7,1.4c0.2,0.4,0.4,0.8,0.6,1.2c0.3,0.5,0.6,1.1,0.9,1.6c0.1,0.1,0.1,0.2,0.2,0.4 c0.4,0.8,0.8,1.6,1.3,2.4c0.5,0.8,0.9,1.7,1.4,2.5c0.1,0.1,0.1,0.2,0.2,0.3c0.4,0.8,0.9,1.5,1.3,2.3c0.5,0.8,0.9,1.6,1.4,2.4 c0.5,0.8,0.9,1.6,1.4,2.4c0.3,0.5,0.6,1,0.9,1.4c0.3,0.4,0.5,0.9,0.8,1.3c0.1,0.1,0.1,0.2,0.2,0.3c0.5,0.8,1,1.5,1.4,2.3 c0.5,0.8,1,1.6,1.6,2.4c0,0.1,0.1,0.1,0.1,0.2c0.5,0.8,1,1.6,1.5,2.3c0.5,0.7,1,1.4,1.4,2.1c0.3,0.5,0.6,0.9,1,1.4 c1.9,2.8,3.9,5.5,5.9,8.2c0.3,0.4,0.6,0.8,0.9,1.2c0.3,0.5,0.7,0.9,1.1,1.4c0.5,0.7,1.1,1.4,1.6,2.1c0.6,0.7,1.1,1.5,1.7,2.2 c0,0,0.1,0.1,0.1,0.1c0.4,0.4,0.7,0.9,1.1,1.3c0.3,0.4,0.7,0.8,1,1.2c0.2,0.2,0.3,0.4,0.5,0.6c0.5,0.6,1,1.2,1.4,1.7 c0.1,0.1,0.2,0.3,0.4,0.4c0.5,0.6,1,1.2,1.6,1.9c0.1,0.1,0.1,0.1,0.2,0.2c0.6,0.7,1.2,1.4,1.8,2c0.5,0.6,1.1,1.3,1.7,1.9 c0.5,0.6,1,1.1,1.5,1.7c0.4,0.4,0.8,0.9,1.2,1.3c0.5,0.6,1.1,1.1,1.6,1.7c0.7,0.7,1.3,1.4,2,2.1c1.3,1.3,2.5,2.6,3.8,3.9 c0.4,0.4,0.7,0.7,1.1,1.1c0.4,0.4,0.9,0.9,1.3,1.3c0.7,0.7,1.4,1.3,2,2c1,1,2,1.9,3,2.8c0.5,0.4,0.9,0.9,1.4,1.3 c0.7,0.7,1.5,1.3,2.2,2c0.7,0.7,1.5,1.3,2.2,2c0.7,0.6,1.4,1.3,2.2,1.9c0.7,0.6,1.3,1.1,2,1.7c0.5,0.5,1.1,0.9,1.6,1.3 c5.5,4.6,11.2,9,17.1,13.2c0.8,0.6,1.6,1.1,2.4,1.7c0.8,0.6,1.6,1.1,2.4,1.7c0.4,0.3,0.9,0.6,1.3,0.9c0.5,0.3,1,0.6,1.5,1 c2.4,1.6,4.8,3.1,7.2,4.6c0.8,0.5,1.7,1,2.5,1.5c0.5,0.3,1,0.6,1.6,0.9c1.5,0.9,3,1.7,4.4,2.6c0.7,0.4,1.3,0.7,2,1.1 c0.8,0.4,1.6,0.9,2.4,1.3c0.7,0.4,1.4,0.8,2.1,1.1c1.4,0.7,2.8,1.5,4.2,2.2c0.6,0.3,1.2,0.6,1.9,0.9c1.1,0.5,2.2,1.1,3.3,1.6 c1.5,0.7,3,1.4,4.6,2.1c2,0.9,4,1.8,6,2.7c0.8,0.3,1.6,0.7,2.4,1c0.9,0.4,1.8,0.8,2.8,1.1c0.9,0.4,1.9,0.7,2.8,1.1 c0.9,0.4,1.9,0.7,2.8,1.1c0.9,0.4,1.9,0.7,2.8,1.1c0.9,0.3,1.9,0.7,2.8,1c1.4,0.5,2.7,1,4.1,1.4c1.5,0.5,3,1,4.5,1.5 c1.4,0.4,2.7,0.8,4.1,1.3c0.6,0.2,1.1,0.3,1.7,0.5c0.9,0.3,1.8,0.5,2.8,0.8c0.5,0.1,1.1,0.3,1.6,0.4c0.9,0.3,1.9,0.5,2.8,0.7 c0.5,0.1,1.1,0.3,1.6,0.4c0.9,0.2,1.9,0.5,2.8,0.7c1.5,0.4,3.1,0.7,4.6,1.1c1,0.2,1.9,0.4,2.9,0.6c5.5,1.2,11.2,2.2,16.8,3.1 c1,0.1,1.9,0.3,2.9,0.4c0.2,0,0.4,0.1,0.6,0.1c0.7,0.1,1.5,0.2,2.2,0.3c0.7,0.1,1.4,0.2,2.1,0.3c1.2,0.1,2.5,0.3,3.7,0.4 c0.2,0,0.5,0.1,0.7,0.1c1,0.1,1.9,0.2,2.9,0.3c1.2,0.1,2.4,0.2,3.6,0.3c1.3,0.1,2.5,0.2,3.8,0.3c1.4,0.1,2.9,0.2,4.3,0.2 c0.7,0,1.5,0.1,2.2,0.1c0.3,0,0.5,0,0.8,0c0.9,0,1.7,0.1,2.6,0.1c2.7,0.1,5.4,0.1,8.1,0.1c88.1,0,166.5-41.9,216.2-106.8 c0.8-1.1,1.7-2.2,2.5-3.3h0C623.9,414.3,636.8,406.3,647.1,402.6C647.1,402.6,647.1,402.6,647.1,402.6z"/><linearGradient id="XMLID_00000147921511805206026590000001462312931851395000_" x1="141.661" x2="615.086" y1="339.598" y2="339.598" gradientUnits="userSpaceOnUse"><stop offset="0" style="stop-color:#000"/><stop offset=".136" style="stop-color:#000"/><stop offset=".985" style="stop-color:#000"/></linearGradient><path id="XMLID_15_" style="fill:url(#XMLID_00000147921511805206026590000001462312931851395000_)" d="M614.7,424.4 c-49.7,65-128.1,106.8-216.2,106.8c-2.7,0-5.4,0-8.1-0.1c-0.9,0-1.7-0.1-2.6-0.1c-0.3,0-0.5,0-0.8,0c-0.7,0-1.5-0.1-2.2-0.1 c-1.4-0.1-2.9-0.2-4.3-0.2c-1.3-0.1-2.5-0.2-3.8-0.3c-1.2-0.1-2.4-0.2-3.6-0.3c-1-0.1-1.9-0.2-2.9-0.3c-0.2,0-0.5,0-0.7-0.1 c-1.2-0.1-2.5-0.3-3.7-0.4c-0.7-0.1-1.4-0.2-2.1-0.3c-0.7-0.1-1.5-0.2-2.2-0.3c-0.2,0-0.4-0.1-0.6-0.1c-1-0.1-1.9-0.3-2.9-0.4 c-5.7-0.8-11.3-1.9-16.8-3.1c-1-0.2-1.9-0.4-2.9-0.6c-1.5-0.3-3.1-0.7-4.6-1.1c-0.9-0.2-1.9-0.5-2.8-0.7c-0.5-0.1-1.1-0.3-1.6-0.4 c-0.9-0.2-1.9-0.5-2.8-0.7c-0.5-0.1-1.1-0.3-1.6-0.4c-0.9-0.3-1.8-0.5-2.8-0.8c-0.6-0.2-1.1-0.3-1.7-0.5c-1.4-0.4-2.7-0.8-4.1-1.3 c-1.5-0.5-3-1-4.5-1.5c-1.4-0.5-2.7-0.9-4.1-1.4c-0.9-0.3-1.9-0.7-2.8-1c-0.9-0.3-1.9-0.7-2.8-1.1c-0.9-0.4-1.9-0.7-2.8-1.1 c-0.9-0.4-1.9-0.7-2.8-1.1c-0.9-0.4-1.8-0.8-2.8-1.1c-0.8-0.3-1.6-0.7-2.4-1c-2-0.9-4-1.8-6-2.7c-1.5-0.7-3.1-1.4-4.6-2.1 c-1.1-0.5-2.2-1.1-3.3-1.6c-0.6-0.3-1.2-0.6-1.9-0.9c-1.4-0.7-2.8-1.4-4.2-2.2c-0.7-0.4-1.4-0.8-2.1-1.1c-0.8-0.4-1.6-0.9-2.4-1.3 c-0.7-0.4-1.3-0.7-2-1.1c-1.5-0.8-3-1.7-4.4-2.6c-0.5-0.3-1-0.6-1.6-0.9c-0.8-0.5-1.7-1-2.5-1.5c-2.4-1.5-4.9-3-7.2-4.6 c-0.5-0.3-1-0.6-1.5-1c-0.4-0.3-0.9-0.6-1.3-0.9c-0.8-0.6-1.6-1.1-2.4-1.7c-0.8-0.6-1.6-1.1-2.4-1.7c-5.9-4.2-11.6-8.6-17.1-13.2 c-0.5-0.4-1.1-0.9-1.6-1.3c-0.7-0.6-1.3-1.1-2-1.7c-0.7-0.6-1.5-1.3-2.2-1.9c-0.7-0.6-1.5-1.3-2.2-2c-0.7-0.7-1.5-1.3-2.2-2 c-0.5-0.4-0.9-0.8-1.4-1.3c-1-0.9-2-1.9-3-2.8c-0.7-0.7-1.4-1.3-2-2c-0.4-0.4-0.9-0.8-1.3-1.3c-0.4-0.4-0.7-0.7-1.1-1.1 c-1.3-1.3-2.6-2.6-3.8-3.9c-0.7-0.7-1.3-1.4-2-2.1c-0.5-0.6-1.1-1.1-1.6-1.7c-0.4-0.4-0.8-0.9-1.2-1.3c-0.5-0.6-1-1.1-1.5-1.7 c-0.6-0.6-1.1-1.3-1.7-1.9c-0.6-0.7-1.2-1.4-1.8-2c-0.1-0.1-0.1-0.1-0.2-0.2c-0.5-0.6-1.1-1.2-1.6-1.9c-0.1-0.1-0.2-0.3-0.4-0.4 c-0.5-0.6-1-1.1-1.4-1.7c-0.2-0.2-0.3-0.4-0.5-0.6c-0.3-0.4-0.7-0.8-1-1.2c-0.4-0.4-0.7-0.9-1.1-1.3c0,0-0.1-0.1-0.1-0.1 c-0.6-0.7-1.2-1.4-1.7-2.2c-0.5-0.7-1.1-1.4-1.6-2.1c-0.4-0.5-0.7-0.9-1.1-1.4c-0.3-0.4-0.6-0.8-0.9-1.2c-2-2.7-4-5.4-5.9-8.2 c-0.3-0.5-0.7-0.9-1-1.4c-0.5-0.7-1-1.4-1.4-2.1c-0.5-0.8-1-1.5-1.5-2.3c0-0.1-0.1-0.1-0.1-0.2c-0.5-0.8-1-1.6-1.6-2.4 c-0.5-0.8-1-1.5-1.4-2.3c-0.1-0.1-0.1-0.2-0.2-0.3c-0.3-0.4-0.6-0.9-0.8-1.3c-0.3-0.5-0.6-0.9-0.9-1.4c-0.5-0.8-0.9-1.6-1.4-2.4 c-0.5-0.8-0.9-1.6-1.4-2.4c-0.4-0.8-0.9-1.5-1.3-2.3c-0.1-0.1-0.1-0.2-0.2-0.3c-0.5-0.8-0.9-1.7-1.4-2.5c-0.4-0.8-0.9-1.6-1.3-2.4 c-0.1-0.1-0.1-0.2-0.2-0.4c-0.3-0.5-0.6-1.1-0.9-1.6c-0.2-0.4-0.4-0.8-0.6-1.2c-0.2-0.5-0.5-0.9-0.7-1.4c-0.2-0.4-0.5-0.9-0.7-1.3 c-0.4-0.8-0.8-1.6-1.2-2.4c-0.4-0.9-0.9-1.8-1.3-2.7c-0.4-0.8-0.7-1.6-1.1-2.3c-0.1-0.2-0.2-0.3-0.2-0.5c-0.3-0.7-0.6-1.4-0.9-2 c-0.1-0.2-0.2-0.5-0.3-0.7c-0.3-0.7-0.6-1.4-0.9-2.1c-0.1-0.2-0.2-0.4-0.3-0.6c-0.1-0.2-0.2-0.5-0.3-0.7c-0.4-1.7-0.8-3.5-1.2-5.2 c-0.1-0.6-0.2-1.1-0.4-1.7c-0.1-0.6-0.2-1.2-0.4-1.8c-0.1-0.6-0.2-1.2-0.4-1.8c-0.1-0.5-0.2-1-0.3-1.5c0-0.1,0-0.1,0-0.2 c0,0,0,0,0,0c-0.1-0.6-0.2-1.2-0.3-1.7c0-0.2-0.1-0.4-0.1-0.6c-0.1-0.7-0.3-1.5-0.4-2.2c-0.1-0.7-0.2-1.5-0.4-2.2 c-0.1-0.7-0.2-1.3-0.3-2c0-0.2-0.1-0.5-0.1-0.7c-0.1-1-0.3-1.9-0.4-2.9c-0.3-2.4-0.6-4.8-0.9-7.2c0-0.2,0-0.4-0.1-0.5L143,333 c0-0.4-0.1-0.8-0.1-1.2c-0.2-2.5-0.5-5-0.6-7.5c-0.1-1.2-0.2-2.4-0.2-3.5c-0.1-1.1-0.1-2.3-0.2-3.4c-0.1-1.5-0.1-3-0.2-4.5 c0-0.5,0-1.1,0-1.6c0-0.5,0-1.1,0-1.6c0-0.6,0-1.2,0-1.9c0-0.6,0-1.3,0-1.9c0-0.8,0-1.6,0-2.4c0-1.5,0-3,0.1-4.5 c0-0.7,0-1.4,0.1-2.1c0-0.9,0.1-1.9,0.1-2.8c0-0.4,0-0.9,0.1-1.3c0.1-2.5,0.3-4.9,0.5-7.4c0-0.6,0.1-1.3,0.1-1.9 c0-0.4,0.1-0.8,0.1-1.2c0.1-0.9,0.2-1.7,0.2-2.6c0.1-0.7,0.1-1.5,0.2-2.2c0.1-0.7,0.2-1.5,0.3-2.2c0-0.2,0.1-0.5,0.1-0.7 c0-0.2,0-0.3,0.1-0.5c0.1-0.6,0.1-1.2,0.2-1.8c0-0.1,0-0.2,0-0.3c0-0.3,0.1-0.6,0.1-1c0.1-0.6,0.1-1.2,0.2-1.8 c0.1-0.6,0.2-1.2,0.3-1.8c0.1-1,0.3-2.1,0.5-3.1c0.1-0.8,0.3-1.7,0.4-2.5c0.1-0.8,0.3-1.6,0.4-2.5c0.3-1.7,0.6-3.4,1-5.1 c0.1-0.3,0.1-0.6,0.2-0.8c0.1-0.3,0.1-0.7,0.2-1c0.2-0.9,0.4-1.9,0.6-2.8c0.2-1.1,0.5-2.2,0.7-3.2c0.2-0.7,0.3-1.3,0.5-2 c0.2-0.8,0.4-1.6,0.6-2.5c8.6-34.5,24-66.4,44.7-94c-0.2,0.4-0.5,0.8-0.7,1.1c-0.8,1.3-1.6,2.5-2.4,3.8c-0.4,0.6-0.8,1.3-1.2,1.9 c-1.5,2.6-3,5.1-4.5,7.7c-1.3,2.4-2.6,4.8-3.8,7.1c-0.2,0.4-0.4,0.8-0.7,1.3c0,0.1-0.1,0.1-0.1,0.2c-0.3,0.5-0.5,1.1-0.8,1.6 c0,0,0,0.1,0,0.1c-0.3,0.6-0.6,1.1-0.8,1.7c-0.3,0.6-0.6,1.2-0.9,1.8c-0.5,1.1-1.1,2.3-1.6,3.4c-0.4,0.8-0.7,1.6-1.1,2.4 c-0.3,0.7-0.6,1.3-0.9,2c-0.3,0.6-0.5,1.2-0.8,1.8c-0.4,0.8-0.7,1.7-1,2.5c-0.2,0.5-0.4,0.9-0.5,1.4c-0.2,0.5-0.4,1-0.6,1.5 c-0.2,0.5-0.4,1-0.6,1.5c0,0,0,0,0,0c-0.2,0.6-0.5,1.2-0.7,1.8c-0.2,0.6-0.5,1.2-0.7,1.8c-0.2,0.6-0.4,1.2-0.6,1.8 c-0.6,1.8-1.3,3.7-1.8,5.5c-0.1,0.4-0.3,0.9-0.4,1.4c-0.1,0.4-0.2,0.8-0.3,1.2c-0.1,0.4-0.2,0.7-0.3,1.1c-0.1,0.4-0.2,0.8-0.4,1.2 c-0.2,0.6-0.4,1.3-0.5,1.9c-0.1,0.4-0.2,0.9-0.4,1.3c-0.1,0.2-0.1,0.5-0.2,0.7c-0.1,0.5-0.3,1-0.4,1.5c-0.2,0.7-0.4,1.4-0.5,2.1 c-0.1,0.5-0.3,1.1-0.4,1.7c-0.1,0.6-0.3,1.3-0.4,1.9c-0.1,0.3-0.1,0.6-0.2,1c-0.2,0.7-0.3,1.4-0.5,2.2c-0.1,0.5-0.2,0.9-0.3,1.4 c-0.1,0.5-0.2,0.9-0.3,1.4c-0.2,1-0.4,2.1-0.6,3.1c-0.1,0.5-0.2,1-0.2,1.5c-0.1,0.7-0.2,1.4-0.3,2.1c-0.1,0.5-0.1,0.9-0.2,1.4 c0,0.3-0.1,0.6-0.1,0.9c-0.1,0.4-0.1,0.9-0.2,1.3c0,0.1,0,0.1,0,0.2c-0.1,0.6-0.1,1.2-0.2,1.7c-0.1,0.6-0.1,1.2-0.2,1.8 c-0.1,0.5-0.1,1-0.2,1.4c0,0.4-0.1,0.8-0.1,1.3c0,0.1,0,0.2,0,0.3c0,0.4-0.1,0.8-0.1,1.3c-0.1,0.9-0.2,1.9-0.2,2.8 c0,0.5-0.1,0.9-0.1,1.4c0,0.5-0.1,1.1-0.1,1.6c0,0.7-0.1,1.4-0.1,2.1c0,0.4,0,0.9-0.1,1.3c0,0.6,0,1.1-0.1,1.7c0,0.6,0,1.1,0,1.7 c0,0.8,0,1.7,0,2.5v0.1c0,0.8,0,1.7,0,2.5c0,0.7,0,1.5,0,2.2c0,0.5,0,1,0,1.5c0,0,0,0,0,0.1v0.1c0,0.1,0,0.1,0,0.2 c0,0.3,0,0.5,0,0.8c0,0,0,0.1,0,0.1c0,0.1,0,0.2,0,0.3c0,0.4,0,0.9,0,1.3c0,0.7,0,1.3,0.1,2c0,0.1,0,0.1,0,0.2c0,0.2,0,0.3,0,0.5 c0,0.4,0,0.8,0.1,1.3c0,0.2,0,0.4,0,0.6c0,0.7,0.1,1.3,0.1,2v0c0,0.3,0,0.6,0.1,0.8c0,0.4,0.1,0.8,0.1,1.3v0c0,0.5,0.1,1.1,0.1,1.6 c0,0.6,0.1,1.1,0.1,1.7c0,0.3,0,0.5,0.1,0.8c0,0.3,0,0.5,0.1,0.8c0,0,0,0,0,0.1c0.1,0.6,0.1,1.1,0.2,1.7c0.1,0.7,0.2,1.4,0.2,2 c0.1,0.7,0.2,1.4,0.3,2.2h0c0,0.2,0,0.3,0.1,0.5c0,0,0,0,0,0.1v0c0,0,0,0,0,0c0.1,0.4,0.1,0.8,0.2,1.2c0.1,0.7,0.2,1.5,0.3,2.2 c0.1,0.7,0.2,1.4,0.3,2.2c0.1,0.7,0.2,1.4,0.4,2.2c0.1,0.7,0.2,1.4,0.4,2.1c0.1,0.3,0.1,0.6,0.2,0.9c0,0.1,0,0.1,0,0.2 c0,0,0,0.1,0,0.1c0,0.2,0.1,0.3,0.1,0.5c0,0.1,0,0.3,0.1,0.4c0.1,0.8,0.3,1.5,0.5,2.3c0,0.1,0,0.1,0,0.2c0,0.1,0,0.2,0.1,0.3 c0,0,0,0,0,0c0,0,0,0,0,0c0,0.1,0.1,0.2,0.1,0.4c0,0.1,0,0.2,0.1,0.3c0,0.1,0,0.2,0.1,0.3c0,0.1,0,0.2,0.1,0.3 c0.1,0.4,0.2,0.8,0.3,1.2c0.1,0.3,0.1,0.5,0.2,0.8c0,0,0,0,0,0.1c0,0,0,0.1,0,0.1c0,0,0,0,0,0.1c0,0.1,0,0.2,0.1,0.3 c0.3,1.4,0.7,2.9,1,4.3c0.1,0.2,0.1,0.5,0.2,0.7c0.1,0.4,0.2,0.8,0.3,1.1c0,0,0,0,0,0c0.1,0.4,0.2,0.7,0.3,1.1 c0.1,0.5,0.2,0.9,0.4,1.4v0c0,0.1,0.1,0.2,0.1,0.3c0.1,0.4,0.2,0.9,0.4,1.3c0,0,0,0,0,0c0,0,0,0,0,0c0,0.1,0,0.2,0.1,0.3 c0,0,0,0.1,0,0.1c0,0,0,0,0,0.1c0,0,0,0,0,0c0.2,0.7,0.4,1.4,0.6,2.1c0,0,0,0,0,0c0.2,0.7,0.4,1.4,0.6,2.1c0.2,0.7,0.4,1.4,0.7,2.1 c0.5,1.4,0.9,2.8,1.4,4.1c0.2,0.7,0.5,1.4,0.7,2.1c0.2,0.6,0.5,1.3,0.7,1.9c0.2,0.5,0.4,1,0.6,1.5c0.1,0.2,0.1,0.4,0.2,0.6 c0,0,0,0,0,0c0.1,0.2,0.1,0.3,0.2,0.5c0,0.1,0,0.1,0.1,0.2c0,0.1,0.1,0.1,0.1,0.2c0,0,0,0,0,0.1c0.1,0.1,0.1,0.3,0.2,0.4 c0.1,0.1,0.1,0.3,0.2,0.4c0,0,0,0,0,0c0,0,0,0.1,0,0.1c0,0,0,0,0,0.1c0,0,0,0.1,0,0.1c0,0.1,0.1,0.2,0.1,0.3 c0.1,0.2,0.2,0.4,0.2,0.6c0,0.1,0,0.1,0.1,0.2c0,0,0,0.1,0.1,0.1c0,0,0,0.1,0,0.1c0.1,0.1,0.1,0.3,0.2,0.4c0.1,0.2,0.1,0.3,0.2,0.5 c0,0.1,0.1,0.2,0.1,0.3c0,0,0,0,0,0c0,0,0,0,0,0.1c0,0,0,0,0,0.1c0,0.1,0,0.1,0.1,0.2c0.1,0.1,0.1,0.3,0.2,0.4 c0,0.1,0.1,0.2,0.1,0.3c0.2,0.5,0.4,1,0.7,1.5c0,0,0,0,0,0c0.5,1.2,1.1,2.4,1.6,3.7c0,0,0,0,0,0c0.2,0.5,0.4,0.9,0.7,1.4 c0.1,0.1,0.1,0.3,0.2,0.4c0.1,0.1,0.1,0.2,0.2,0.3c0.1,0.2,0.1,0.3,0.2,0.5c0,0,0,0.1,0,0.1c0.1,0.3,0.3,0.6,0.4,0.9h0 c0,0,0,0.1,0.1,0.1c0.2,0.4,0.4,0.8,0.6,1.2c0.1,0.2,0.2,0.3,0.2,0.5c0,0.1,0.1,0.2,0.2,0.3c0,0,0,0,0,0c0,0,0,0,0,0v0 c0,0.1,0.1,0.1,0.1,0.2c0,0,0,0.1,0,0.1c0,0,0,0,0,0.1c0,0,0,0,0,0c0,0,0,0,0,0s0,0,0,0c0,0.1,0.1,0.1,0.1,0.2 c0,0.1,0.1,0.2,0.1,0.3l0.3,0.6l0,0c0.6,1.2,1.2,2.4,1.9,3.6c0,0,0,0,0,0c0.6,1.2,1.3,2.3,1.9,3.5c0,0,0,0,0,0c1,1.7,2,3.5,3.1,5.2 c0.7,1.1,1.4,2.3,2.1,3.4c0.7,1.1,1.5,2.3,2.2,3.4c0,0,0,0,0,0c0.7,1.1,1.5,2.2,2.3,3.3c3.5,5,7.2,9.8,11.2,14.4 c0.9,1,1.8,2.1,2.7,3.1c1.4,1.5,2.8,3,4.2,4.5c1,1,1.9,2,2.9,2.9c25.4,25.1,59.2,43.8,101,51.5c96.8,63.4,204.7,36.8,276.7-37.7 C616.1,400.3,615.8,417.3,614.7,424.4z"/></g><linearGradient id="XMLID_00000092457567579268219070000010823083749261415059_" x1="-31.172" x2="805.394" y1="658.71" y2="-324.255" gradientUnits="userSpaceOnUse"><stop offset="0" style="stop-color:#ee3324"/><stop offset=".178" style="stop-color:#e92a25"/><stop offset=".521" style="stop-color:#e72625"/><stop offset=".557" style="stop-color:#e94832"/><stop offset=".652" style="stop-color:#f08062"/><stop offset=".741" style="stop-color:#f5aa8f"/><stop offset=".823" style="stop-color:#facdba"/><stop offset=".896" style="stop-color:#fde6db"/><stop offset=".958" style="stop-color:#fff7f2"/><stop offset="1" style="stop-color:#fff"/></linearGradient><path id="XMLID_14_" style="fill:url(#XMLID_00000092457567579268219070000010823083749261415059_)" d="M234.5,304.3	c0,0.5,0,1,0,1.5c0,0.4,0,0.8,0,1.2c0,0.4,0,0.8,0,1.2c0,0.3,0,0.7,0,1.1c0,0.4,0,0.7,0,1.1c0,1,0.1,2,0.1,2.9	c0,0.7,0.1,1.5,0.1,2.2c0,0.8,0.1,1.5,0.1,2.3c0.1,1.6,0.2,3.2,0.4,4.9c0,0.3,0,0.5,0.1,0.8l0.2,1.5c0,0.1,0,0.2,0,0.3	c0.2,1.6,0.4,3.1,0.6,4.7c0.1,0.6,0.2,1.3,0.3,1.9c0,0.2,0,0.3,0.1,0.5c0.1,0.4,0.1,0.8,0.2,1.3c0.1,0.5,0.2,0.9,0.2,1.4	c0.1,0.5,0.2,1,0.3,1.4c0,0.1,0,0.3,0.1,0.4c0.1,0.4,0.1,0.7,0.2,1.1c0,0,0,0.1,0,0.1c0.1,0.3,0.1,0.7,0.2,1	c0.1,0.4,0.2,0.8,0.2,1.1c0.1,0.4,0.2,0.8,0.2,1.1c0.1,0.4,0.2,0.7,0.2,1.1c0.3,1.2,0.5,2.4,0.8,3.6c0.2,0.7,0.3,1.4,0.5,2.1	c0.1,0.4,0.2,0.7,0.3,1.1c0.4,1.6,0.8,3.1,1.3,4.6c0.1,0.3,0.2,0.7,0.3,1c0.2,0.7,0.4,1.5,0.7,2.2c0.2,0.7,0.5,1.5,0.7,2.2	c0.1,0.2,0.1,0.4,0.2,0.6c0.1,0.3,0.2,0.6,0.3,0.9c0.1,0.2,0.2,0.5,0.2,0.7c0.2,0.6,0.4,1.3,0.7,1.9c0.1,0.2,0.1,0.4,0.2,0.6	c0.1,0.2,0.2,0.5,0.2,0.7c0,0.1,0.1,0.2,0.1,0.3c0.1,0.2,0.2,0.4,0.2,0.7c0,0.1,0.1,0.2,0.1,0.4c0.3,0.7,0.5,1.3,0.8,2	c0.1,0.2,0.1,0.4,0.2,0.5c0.1,0.3,0.2,0.6,0.4,0.9c0.1,0.2,0.2,0.4,0.3,0.6c0.3,0.7,0.6,1.4,0.9,2.1c0,0,0,0,0,0	c0.3,0.7,0.6,1.4,0.9,2.1c0.2,0.6,0.5,1.1,0.7,1.7c0.4,0.8,0.8,1.7,1.2,2.5c0.4,0.8,0.8,1.6,1.2,2.4c0.2,0.4,0.4,0.7,0.5,1.1	c0.1,0.2,0.2,0.5,0.3,0.7c0,0,0,0,0,0c0.2,0.4,0.5,0.9,0.7,1.4c0.2,0.5,0.5,0.9,0.7,1.4c0.2,0.5,0.5,0.9,0.8,1.4	c0.2,0.4,0.5,0.9,0.7,1.3c0.2,0.4,0.5,0.9,0.7,1.3c0.4,0.7,0.8,1.3,1.2,2c0,0,0,0.1,0.1,0.1c0.4,0.7,0.9,1.5,1.3,2.2	c0.5,0.8,0.9,1.5,1.4,2.3c0.6,0.9,1.2,1.8,1.7,2.7c0.3,0.4,0.5,0.8,0.8,1.2c0.1,0.2,0.3,0.4,0.4,0.6c0.1,0.2,0.3,0.4,0.4,0.6	c0.3,0.5,0.6,0.9,0.9,1.4c0.9,1.4,1.9,2.7,2.9,4c0.2,0.3,0.5,0.6,0.7,0.9c0.2,0.3,0.4,0.5,0.6,0.8c0.2,0.3,0.4,0.6,0.7,0.9	c0.3,0.4,0.5,0.7,0.8,1.1c2.5,3.2,5,6.3,7.7,9.3c0.6,0.7,1.2,1.3,1.8,2c3.7,4,7.6,7.8,11.6,11.4c0.6,0.5,1.2,1.1,1.8,1.6	c1.7,1.5,3.4,2.9,5.1,4.3c0.7,0.6,1.4,1.1,2.1,1.7c0.4,0.4,0.9,0.7,1.4,1.1c0.4,0.3,0.8,0.6,1.2,0.9c2,1.5,4.1,3,6.2,4.4	c0.8,0.5,1.5,1,2.3,1.5c0.4,0.3,0.8,0.5,1.2,0.8c0.4,0.3,0.8,0.5,1.2,0.7c0.6,0.4,1.3,0.8,2,1.2c-41.8-7.7-75.6-26.3-101-51.5	c-1-1-1.9-1.9-2.9-2.9c-1.4-1.5-2.8-3-4.2-4.5c-0.9-1-1.8-2-2.7-3.1c-4-4.6-7.8-9.5-11.2-14.4c-0.8-1.1-1.5-2.2-2.3-3.3c0,0,0,0,0,0	c-0.7-1.1-1.5-2.2-2.2-3.4c-0.7-1.1-1.4-2.3-2.1-3.4c-1.1-1.7-2.1-3.5-3.1-5.2c0,0,0,0,0,0c-0.7-1.2-1.3-2.3-1.9-3.5c0,0,0,0,0,0	c-0.6-1.2-1.3-2.4-1.9-3.6l0,0l-0.3-0.6c0-0.1-0.1-0.2-0.1-0.3c0-0.1-0.1-0.1-0.1-0.2c0,0,0,0,0,0s0,0,0,0c0,0,0-0.1,0-0.1	c0,0,0-0.1,0-0.1c0-0.1-0.1-0.1-0.1-0.2v0c0,0,0,0,0,0c0,0,0,0,0,0c-0.1-0.1-0.1-0.2-0.2-0.3c-0.3-0.6-0.6-1.2-0.9-1.8	c-0.1-0.3-0.3-0.6-0.4-0.9c0,0,0-0.1,0-0.1c-0.1-0.3-0.3-0.5-0.4-0.8c-0.3-0.6-0.6-1.2-0.8-1.8c0,0,0,0,0,0	c-0.6-1.2-1.1-2.4-1.6-3.7c0,0,0,0,0,0c-0.2-0.5-0.4-1-0.7-1.5c-0.1-0.1-0.1-0.2-0.1-0.3c-0.1-0.1-0.1-0.3-0.2-0.4	c0-0.1,0-0.1-0.1-0.2c0,0,0,0,0-0.1c0,0,0,0,0-0.1c-0.1-0.1-0.1-0.3-0.2-0.4c-0.1-0.2-0.1-0.3-0.2-0.5c-0.1-0.1-0.1-0.3-0.2-0.4	c0,0,0-0.1,0-0.1c0,0,0-0.1-0.1-0.1c0-0.1,0-0.1-0.1-0.2c-0.1-0.2-0.2-0.4-0.2-0.6c0-0.1-0.1-0.2-0.1-0.3c0,0,0-0.1,0-0.1	c0,0,0,0,0-0.1c0,0,0-0.1,0-0.1c0,0,0,0,0,0c-0.1-0.3-0.2-0.6-0.4-0.9c0-0.1-0.1-0.1-0.1-0.2c-0.2-0.4-0.3-0.9-0.5-1.3	c-0.2-0.5-0.4-1-0.6-1.5c-0.2-0.6-0.5-1.3-0.7-1.9c-0.2-0.7-0.5-1.4-0.7-2.1c-0.5-1.4-1-2.8-1.4-4.1c-0.2-0.7-0.5-1.4-0.7-2.1	c-0.2-0.7-0.4-1.4-0.6-2.1c0,0,0,0,0,0c-0.2-0.7-0.4-1.4-0.6-2.1c0,0,0,0,0,0c0,0,0,0,0-0.1c0,0,0-0.1,0-0.1c0-0.1-0.1-0.2-0.1-0.3	c0,0,0,0,0,0c0,0,0,0,0,0c-0.1-0.4-0.3-0.9-0.4-1.3c0-0.1-0.1-0.2-0.1-0.3v0c-0.1-0.4-0.3-0.9-0.4-1.4c-0.1-0.4-0.2-0.7-0.3-1.1	c0,0,0,0,0,0c-0.1-0.4-0.2-0.8-0.3-1.1c-0.1-0.2-0.1-0.5-0.2-0.7c-0.4-1.4-0.7-2.8-1-4.3c0-0.1,0-0.2-0.1-0.3c0,0,0,0,0-0.1	c0,0,0-0.1,0-0.1c0,0,0,0,0-0.1c-0.1-0.3-0.1-0.5-0.2-0.8c-0.1-0.4-0.2-0.8-0.3-1.2c0-0.1,0-0.2-0.1-0.3c0-0.1,0-0.2-0.1-0.3	c0-0.1,0-0.2-0.1-0.3c0-0.1-0.1-0.2-0.1-0.4c0,0,0,0,0,0c0,0,0,0,0,0c0-0.1,0-0.2-0.1-0.3c0-0.1,0-0.1,0-0.2	c-0.2-0.8-0.3-1.5-0.5-2.3c0-0.1,0-0.3-0.1-0.4c0-0.2-0.1-0.3-0.1-0.5c0,0,0-0.1,0-0.1c0-0.1,0-0.1,0-0.2c-0.1-0.3-0.1-0.6-0.2-0.9	c-0.1-0.7-0.3-1.4-0.4-2.1c-0.1-0.7-0.2-1.4-0.4-2.2c-0.1-0.7-0.2-1.4-0.3-2.2c-0.1-0.7-0.2-1.5-0.3-2.2c-0.1-0.4-0.1-0.8-0.2-1.2	c0,0,0,0,0,0v0c0,0,0,0,0-0.1c0-0.2,0-0.3-0.1-0.5c-0.1-0.7-0.2-1.4-0.3-2.2c-0.1-0.7-0.2-1.4-0.2-2c-0.1-0.6-0.1-1.1-0.2-1.7	c0,0,0,0,0-0.1c0-0.3-0.1-0.5-0.1-0.8c0-0.3,0-0.5-0.1-0.8c-0.1-0.6-0.1-1.1-0.1-1.7c0-0.5-0.1-1.1-0.1-1.6v0c0-0.4-0.1-0.9-0.1-1.3	c0-0.3,0-0.6-0.1-0.8v0c0-0.7-0.1-1.3-0.1-2c0-0.2,0-0.4,0-0.6c0-0.4,0-0.8-0.1-1.3c0-0.2,0-0.3,0-0.5c0-0.1,0-0.1,0-0.2	c0-0.6-0.1-1.3-0.1-2c0-0.4,0-0.9,0-1.3c0-0.1,0-0.2,0-0.3c0,0,0-0.1,0-0.1c0-0.3,0-0.5,0-0.8c0-0.1,0-0.1,0-0.2v-0.1	c0-0.5,0-1,0-1.5c0-0.7,0-1.5,0-2.2c0-0.8,0-1.7,0-2.5v-0.1c0-0.8,0-1.7,0-2.5c0-0.6,0-1.1,0-1.7c0-0.6,0-1.1,0.1-1.7	c0-0.4,0-0.9,0.1-1.3c0-0.7,0.1-1.4,0.1-2.1c0-0.5,0.1-1.1,0.1-1.6c0-0.5,0.1-0.9,0.1-1.4c0.1-0.9,0.2-1.9,0.2-2.8	c0-0.4,0.1-0.8,0.1-1.3c0-0.1,0-0.2,0-0.3c0-0.4,0.1-0.8,0.1-1.3c0.1-0.5,0.1-1,0.2-1.4c0.1-0.6,0.1-1.2,0.2-1.8	c0.1-0.6,0.1-1.2,0.2-1.7c0-0.1,0-0.1,0-0.2c0.1-0.4,0.1-0.9,0.2-1.3c0-0.3,0.1-0.6,0.1-0.9c0.1-0.5,0.1-0.9,0.2-1.4	c0.1-0.7,0.2-1.4,0.3-2.1c0.1-0.5,0.2-1,0.2-1.5c0.2-1,0.4-2.1,0.6-3.1c0.1-0.5,0.2-0.9,0.3-1.4c0.1-0.5,0.2-0.9,0.3-1.4	c0.1-0.7,0.3-1.4,0.5-2.2c0.1-0.3,0.1-0.6,0.2-1c0.1-0.6,0.3-1.3,0.4-1.9c0.1-0.6,0.3-1.1,0.4-1.7c0.2-0.7,0.3-1.4,0.5-2.1	c0.1-0.5,0.3-1,0.4-1.5c0.1-0.2,0.1-0.5,0.2-0.7c0.1-0.4,0.2-0.9,0.4-1.3c0.2-0.6,0.4-1.3,0.5-1.9c0.1-0.4,0.2-0.8,0.4-1.2	c0.1-0.4,0.2-0.7,0.3-1.1c0.1-0.4,0.2-0.8,0.3-1.2c0.1-0.5,0.3-0.9,0.4-1.4c0.6-1.8,1.2-3.7,1.8-5.5c0.2-0.6,0.4-1.2,0.6-1.8	c0.2-0.6,0.4-1.2,0.7-1.8c0.2-0.6,0.5-1.2,0.7-1.8c0,0,0,0,0,0c0.2-0.5,0.4-1,0.6-1.5c0.2-0.5,0.4-1,0.6-1.5	c0.2-0.5,0.4-0.9,0.5-1.4c0.3-0.8,0.7-1.7,1-2.5c0.3-0.6,0.5-1.2,0.8-1.8c0.3-0.7,0.6-1.3,0.9-2c0.4-0.8,0.7-1.6,1.1-2.4	c0.5-1.1,1-2.3,1.6-3.4c0.3-0.6,0.6-1.2,0.9-1.8c0.3-0.6,0.5-1.1,0.8-1.7c0,0,0-0.1,0-0.1c0.3-0.5,0.5-1.1,0.8-1.6	c0-0.1,0.1-0.1,0.1-0.2c0.2-0.4,0.4-0.8,0.7-1.3c1.2-2.4,2.5-4.8,3.8-7.1c1.4-2.6,2.9-5.1,4.5-7.7c0.4-0.6,0.8-1.3,1.2-1.9	c0.8-1.3,1.6-2.5,2.4-3.8c0.2-0.4,0.5-0.8,0.7-1.1c0,0,0,0,0,0C242.3,83.9,318.8,42.4,405.1,42.4c62.6,0,120.1,21.8,165.3,58.3	c16.6,13.4,31.5,28.7,44.5,45.7c-43-38.2-99-66.7-160.3-66.7c-112.6,0-207.7,82.3-214.9,183.5c0,0.4-0.1,0.9-0.1,1.3	c-0.1,0.5-0.3,1.1-0.4,1.6c-0.1,0.4-0.2,0.9-0.3,1.3c-0.2,0.7-0.3,1.4-0.5,2.1c-0.1,0.6-0.3,1.2-0.4,1.8c0,0.2-0.1,0.4-0.1,0.7	c0,0.2-0.1,0.4-0.1,0.5c-0.2,1.1-0.4,2.2-0.6,3.3c-0.1,0.5-0.2,1.1-0.3,1.6c-0.1,0.5-0.2,1.1-0.3,1.6c-0.1,0.7-0.2,1.3-0.3,2	c-0.1,0.4-0.1,0.8-0.2,1.2c-0.1,0.4-0.1,0.8-0.2,1.1c0,0.2-0.1,0.4-0.1,0.6c0,0.1,0,0.1,0,0.2c-0.1,0.5-0.1,1-0.2,1.5	c0,0.2,0,0.3-0.1,0.5c-0.1,0.5-0.1,1-0.2,1.4c-0.1,0.5-0.1,1-0.1,1.4c-0.1,0.6-0.1,1.1-0.2,1.7c0,0.2,0,0.5-0.1,0.7	c0,0.4-0.1,0.8-0.1,1.2c-0.1,1.6-0.2,3.2-0.3,4.8c0,0.3,0,0.6,0,0.8c0,0.6-0.1,1.2-0.1,1.8c0,0.5,0,0.9,0,1.4	C234.5,302.4,234.5,303.3,234.5,304.3z"/><linearGradient id="XMLID_00000155114271229876546060000000114304231763921300_" x1="240.338" x2="647.699" y1="172.018" y2="172.018" gradientUnits="userSpaceOnUse"><stop offset=".402" style="stop-color:#c12026"/><stop offset=".411" style="stop-color:#c22026"/><stop offset=".533" style="stop-color:#d42027"/><stop offset=".543" style="stop-color:#d52027"/><stop offset=".795" style="stop-color:#e22425"/><stop offset="1" style="stop-color:#e72625"/></linearGradient><path id="XMLID_10_" style="fill:url(#XMLID_00000155114271229876546060000000114304231763921300_)" d="M617.6,257.1	c-1.9,0.6-4.1,1.4-5.6,1.7c-1,0.3-2.1,0.5-3.2,0.7c-14.5,2.7-35.1,0.5-51.2-29.8c-2-3.8-3.3-7.9-4.8-12	c-7.7-21.7-22.7-45.2-46.8-59.5c-32.2-19.2-63.8-24.8-100.8-23.1c-90.5,4.3-147,55-165.5,129.2c0-0.4,0-0.8,0.1-1.2	C246.9,162,341.9,79.7,454.5,79.7c61.2,0,117.3,28.5,160.3,66.7v0c4.9,4.9,9.6,11.2,13.8,18.2c0.8,1.4,1.7,2.8,2.5,4.2	c8.1,12.7,14.2,27.5,15.5,42.9c0.1,1.3,0.2,2.6,0.3,3.9c0.1,3.9-0.1,7.7-0.9,11.5c-0.3,1.6-0.8,3.2-1.3,4.7	c-3.7,11.2-13.3,19.9-24.3,24.3C619.5,256.4,618.5,256.8,617.6,257.1z"/></svg>